<svg xmlns="http://www.w3.org/2000/svg" width="116" height="116" fill="none"><g clip-path="url(#a)"><path fill="#003584" d="M58 116c32.032 0 58-25.968 58-58S90.032 0 58 0 0 25.968 0 58s25.968 58 58 58Z"/><path fill="#FDFDFD" d="M86.4 58.02c.1 15.72-13 28.78-29.1 28.44-15.18-.32-27.88-12.78-27.86-28.56.04-15.94 13.24-28.82 29.26-28.38 15.38.4 27.82 13.12 27.68 28.52l.02-.02ZM29.48 8.62s.12-.12.18-.16c-.18.46.26.6.48.82 5.72 5.74 11.44 11.46 17.16 17.18.24.24.54.42.68.84-4.34 1.44-8.22 3.68-11.72 6.8-.36-1.32-.68-2.52-1-3.72l-5.7-21.3c-.04-.16-.06-.32-.08-.46Zm56.72-.16s.12.12.18.16c-1.22 4.64-2.44 9.26-3.68 13.9-1.02 3.8-2.04 7.6-3.1 11.58-3.52-3.08-7.38-5.38-11.74-6.78.14-.44.46-.62.7-.86C74.28 20.74 80 15.02 85.72 9.28c.22-.22.66-.36.48-.82ZM8.42 29.72s.12-.12.16-.18c4.64 1.22 9.26 2.44 13.9 3.68 3.8 1.02 7.6 2.04 11.58 3.1-3.08 3.52-5.38 7.38-6.78 11.74-.44-.14-.62-.46-.86-.68-5.72-5.72-11.44-11.44-17.18-17.16-.22-.22-.36-.66-.82-.48v-.02Zm98.88-.18s.12.12.16.18c-.46-.18-.6.26-.82.48-5.74 5.72-11.46 11.44-17.18 17.16-.24.24-.42.54-.84.68-1.44-4.34-3.68-8.22-6.8-11.72 1.32-.36 2.52-.68 3.72-1 7.06-1.9 14.14-3.78 21.2-5.68.18-.04.36-.08.56-.12v.02ZM8.58 86.44s-.12-.12-.16-.18c.46.18.6-.26.82-.48 5.74-5.72 11.46-11.44 17.18-17.16.24-.24.42-.54.84-.68 1.44 4.34 3.68 8.22 6.8 11.72-1.32.36-2.52.68-3.72 1-7.06 1.9-14.14 3.78-21.2 5.68-.18.04-.36.08-.56.12v-.02Zm98.88-.18s-.12.12-.16.18c-4.64-1.22-9.26-2.44-13.9-3.68-3.8-1.02-7.6-2.04-11.58-3.1 3.08-3.52 5.38-7.38 6.78-11.74.44.14.62.46.86.7 5.72 5.72 11.44 11.44 17.18 17.16.22.22.36.66.82.48Zm-77.8 21.24s-.12-.12-.18-.16c1.22-4.64 2.44-9.26 3.68-13.9 1.02-3.8 2.04-7.6 3.1-11.58 3.5 3.1 7.38 5.36 11.74 6.8-.14.42-.46.62-.68.84-5.72 5.72-11.44 11.44-17.16 17.18-.22.22-.66.36-.48.82h-.02Zm56.74-.16s-.12.12-.18.16c.18-.46-.26-.6-.48-.82-5.72-5.74-11.44-11.46-17.16-17.18-.24-.24-.54-.42-.68-.84 4.34-1.44 8.22-3.66 11.72-6.82.36 1.32.68 2.52 1 3.74 1.9 7.06 3.78 14.14 5.68 21.2.04.18.08.36.12.56h-.02ZM51.1 89.48c4.6.96 9.08.96 13.68 0-2.26 8.44-4.5 16.78-6.72 25.14-.06 0-.14 0-.2.02-2.24-8.34-4.46-16.68-6.74-25.16h-.02ZM26.44 64.82c-8.46-2.26-16.8-4.5-25.14-6.74v-.2c8.34-2.24 16.68-4.46 25.14-6.74-.96 4.56-.98 9.04 0 13.68Zm88.14-6.72c-8.32 2.24-16.66 4.46-25.12 6.72.94-4.56.96-9.04 0-13.68 8.44 2.26 16.78 4.5 25.14 6.74v.22h-.02Zm-49.8-31.62c-4.62-.98-9.06-.96-13.68 0 2.26-8.44 4.5-16.8 6.74-25.14h.2c2.24 8.34 4.46 16.68 6.74 25.14Z"/></g><defs><clipPath id="a"><path fill="#fff" d="M0 0h116v116H0z"/></clipPath></defs></svg>