<svg xmlns="http://www.w3.org/2000/svg" width="116" height="116" fill="none"><g clip-path="url(#a)"><path fill="#28C6C6" d="M58 116c32.032 0 58-25.968 58-58S90.032 0 58 0 0 25.968 0 58s25.968 58 58 58Z"/><path fill="#fff" d="M86.76 80.86c-3.82-1.58-6.5-3.88-7.82-6.24a.4.4 0 0 1-.04-.3c.84-2.78 1.14-7 1.18-10.08 0-.2-.14-.36-.32-.4l-6.14-1.14c-.24-.04-.46.12-.46.36C72.7 70.7 70 79.24 64.9 80.88c-.18.06-.3.24-.26.44l1.24 8.08c.04.22.24.38.46.32 4.24-.8 7.14-3.02 9.44-6.7.16-.24.5-.24.66 0 1.78 2.7 4.64 5.06 8.86 6.62.24.08.5-.06.54-.32l1.18-8.04c.02-.18-.08-.36-.24-.42m-36.56 0c-2.9-1.42-5.58-3.88-6.9-6.24a.4.4 0 0 1-.04-.3c.84-2.78 1.14-7 1.18-10.08 0-.2-.14-.36-.32-.4L38 62.7c-.24-.04-.46.12-.46.36-.46 7.64-3.16 16.18-8.26 17.82-.18.06-.3.24-.28.44l1.24 8.08c.04.22.24.38.46.32 4.26-.8 7.16-3.04 9.46-6.74.14-.24.48-.26.66-.02 2.06 2.78 4.24 5.18 7.9 6.66.24.1.5-.06.54-.3l1.18-8.04a.403.403 0 0 0-.22-.42Z"/><path fill="#fff" d="M85.36 59v-6.32c0-.22-.18-.4-.4-.4l-54.84.18c-.22 0-.4.18-.4.4V59c0 .22.18.4.4.4H52.1c.22 0 .4.18.4.4v29.62c0 .22.18.4.4.4h9.34c.22 0 .4-.18.4-.4V59.8c0-.22.18-.4.4-.4H85c.22 0 .4-.18.4-.4M31.54 47.8h52.04c.22 0 .4-.18.4-.4V26.58c0-.22-.18-.4-.4-.4H31.54c-.22 0-.4.18-.4.4V47.4c0 .22.18.4.4.4ZM68.4 32.54c0-.22.18-.4.4-.4h6.12c.22 0 .4.18.4.4v8.9c0 .22-.18.4-.4.4H68.8c-.22 0-.4-.18-.4-.4v-8.9Zm-14.24 0c0-.22.18-.4.4-.4h6c.22 0 .4.18.4.4v8.9c0 .22-.18.4-.4.4h-6c-.22 0-.4-.18-.4-.4v-8.9Zm-14.36 0c0-.22.18-.4.4-.4h6.12c.22 0 .4.18.4.4v8.9c0 .22-.18.4-.4.4H40.2c-.22 0-.4-.18-.4-.4v-8.9Z"/></g><defs><clipPath id="a"><path fill="#fff" d="M0 0h116v116H0z"/></clipPath></defs></svg>