<svg xmlns="http://www.w3.org/2000/svg" width="116" height="116" fill="none"><g clip-path="url(#a)"><path fill="#009C41" d="M57.837 101.062c23.546 0 42.798-19.17 42.798-42.797 0-23.628-19.252-42.758-42.798-42.758-23.546 0-42.757 19.191-42.757 42.758 0 23.566 19.069 42.797 42.757 42.797Z"/><path fill="#fff" d="M102.629 42.757H78.921V13.574H36.713v29.183H13.248v31.056h23.465v28.593h42.208V73.813h23.708V42.757Z"/><path stroke="#009C41" stroke-width="1.32" d="M13.248 45.464H39.4V13.94M13.248 71.126H39.4v30.934m63.229-56.596H76.173V13.94m26.456 57.186H76.173v30.934"/><path fill="#009C41" d="M69.926 25.56c.63-.243.875.754 1.404.652.936.346 2.34-.122 2.564.977 0 1.058 1.058 1.811.468 2.93-2.686 1.995-.977 5.25-.753 7.836-.346 2.218-1.69 4.029-2.157 6.267-2.117 2.972.814 6.676-1.465 9.586-.652 1.485-.306 3.032-.998 4.558-.223 1.445-1.22 2.93-.875 4.498-1.913 5.027-4.375 10.277-7.957 14.51-2.87 4.396-2.747 9.423-2.096 14.205.346 2.239-2.218 1.12-3.337 1.241-2.463-1.71-.59-4.924-2.83-6.96-2.91-3.683-7-6.37-7.59-11.396-.997-1.75-3.684-3.561-2.809-5.8.469-4.152.814-8.242.998-13.167 3.378-5.129 7.936-9.748 8.649-15.772 1.852-2.218 4.558-4.335 4.68-7.49.875-3.805 5.15-4.334 7.713-6.43.753-.936 1.405-1.933 2.646-2.401 1.465-.122 3.276.468 3.724 2.157"/><path fill="#BBB7A0" d="M58 .02h-.061C25.907.081 0 26.049 0 57.98 0 89.91 25.907 116 57.939 116H58c31.93 0 57.898-25.968 57.898-58.02C115.898 25.926 89.93.02 58 .02Zm0 100.289c-23.444 0-42.33-18.947-42.33-42.33S34.556 15.63 58 15.63s42.33 19.028 42.33 42.35c0 23.404-19.008 42.33-42.33 42.33Z"/><mask id="b" width="116" height="116" x="0" y="0" maskUnits="userSpaceOnUse" style="mask-type:luminance"><path fill="#fff" d="M100.33 57.96c0 23.403-19.008 42.329-42.33 42.329s-42.33-18.947-42.33-42.33S34.535 15.61 58 15.61s42.33 19.028 42.33 42.35ZM58 115.98c31.93 0 57.898-25.968 57.898-58.02C115.898 25.906 89.93 0 58 0h-.061C25.907.061 0 26.029 0 57.96c0 31.93 25.907 58.02 57.939 58.02H58Z"/></mask><g mask="url(#b)"><path fill="#DC0515" d="M95.405 118.259c.366.59-.55 1.018-.326 1.506-.142.997.59 2.259-.427 2.727-1.018.224-1.547 1.404-2.748 1.079-2.523-2.219-5.352.122-7.814.915-2.239.122-4.315-.814-6.574-.793-3.337-1.445-6.329 2.198-9.666.59-1.588-.326-3.032.346-4.681 0-1.486.081-3.114-.57-4.579.102-5.312-.835-10.99-2.117-15.853-4.722-4.905-1.872-9.789-.692-14.327.936-2.117.794-1.567-1.953-1.913-3.012 1.14-2.747 4.68-1.607 6.207-4.212 2.971-3.623 4.742-8.202 9.544-9.83 1.506-1.322 2.707-4.334 5.068-3.968 4.151-.407 8.221-.957 13.065-1.811 5.76 2.238 11.234 5.718 17.257 5.128 2.565 1.364 5.19 3.562 8.304 3.012 3.907.061 5.311 4.111 7.916 6.187 1.079.549 2.198.956 2.89 2.055.427 1.404.244 3.317-1.303 4.111"/><path fill="#A7CB36" d="M1.994 101.673c-.468.509-1.119-.265-1.546.081-.998.123-2.035 1.16-2.748.285-.468-.936-1.77-1.139-1.75-2.38 1.486-3.013-1.506-5.15-2.89-7.347-.712-2.137-.325-4.355-.936-6.553.509-3.623-3.765-5.556-3.052-9.199-.102-1.608-1.12-2.85-1.18-4.518-.469-1.404-.245-3.154-1.283-4.396-.57-5.372-.794-11.172.468-16.545.53-5.21-1.852-9.626-4.62-13.615-1.322-1.81 1.486-1.994 2.402-2.625 2.971.387 2.768 4.11 5.678 4.925 4.294 1.933 9.158 2.483 11.966 6.675 1.69 1.12 4.905 1.486 5.149 3.867a165.256 165.256 0 0 0 5.108 12.15c-.672 6.125-2.646 12.332-.509 18.01-.651 2.808-2.096 5.942-.753 8.791.936 3.786-2.605 6.187-3.948 9.26-.244 1.16-.366 2.361-1.241 3.317-1.242.773-3.134 1.079-4.315-.224"/><path fill="#767CB8" d="M6.065 102.345c-.489-.469.305-1.12-.041-1.547-.061-.997-1.1-2.056-.204-2.748.957-.447 1.201-1.73 2.442-1.689 2.93 1.567 5.17-1.363 7.388-2.686 2.177-.63 4.396-.203 6.594-.733 3.602.631 5.677-3.602 9.28-2.788 1.607-.06 2.869-1.037 4.558-1.058 1.425-.407 3.154-.142 4.437-1.14 5.372-.407 11.172-.447 16.504.957 5.19.712 9.687-1.547 13.737-4.192 1.852-1.282 1.954 1.526 2.544 2.483-.468 2.93-4.192 2.625-5.068 5.515-2.075 4.233-2.747 9.096-7.041 11.783-1.14 1.648-1.648 4.843-4.01 5.006-3.947 1.384-7.794 2.808-12.311 4.762-6.106-.855-12.231-2.991-17.97-1.017-2.809-.753-5.861-2.259-8.771-1.018-3.806.834-6.126-2.788-9.138-4.213-1.16-.284-2.34-.447-3.297-1.343-.732-1.261-.977-3.174.346-4.314M65.082-11.681c.163-.672 1.099-.285 1.303-.794.834-.57 1.24-1.995 2.3-1.547.854.61 2.075.183 2.665 1.303.102 3.337 3.724 3.805 6.004 5.087 1.607 1.547 2.34 3.704 3.887 5.353 1.241 3.419 5.942 3.154 7.02 6.695.835 1.384 2.341 1.974 3.196 3.42 1.058 1.037 1.689 2.665 3.195 3.296 3.032 4.457 5.942 9.483 7.346 14.836 1.975 4.843 6.146 7.652 10.44 9.85 2.056.976-.345 2.462-.875 3.439-2.808 1.038-4.355-2.34-7.326-1.669-4.701.305-9.24 2.117-13.696-.285-2.015-.183-5.027.997-6.35-.997a160.814 160.814 0 0 0-10.216-8.344c-2.3-5.739-3.48-12.109-8.018-16.138-.753-2.809-.936-6.207-3.46-8.12-2.625-2.89-.61-6.675-.875-10.013-.325-1.16-.773-2.238-.447-3.54.732-1.263 2.259-2.423 3.927-1.832"/><path fill="#F7BC00" d="M1.099 7.347c.407-.57 1.14.142 1.526-.244.977-.224 1.893-1.405 2.687-.611.59.875 1.892.936 2.014 2.198-1.14 3.134 2.076 4.925 3.684 6.94.956 2.055.814 4.314 1.648 6.43-.122 3.643 4.376 5.109 4.05 8.812.285 1.567 1.425 2.707 1.69 4.355.61 1.364.61 3.114 1.75 4.233 1.16 5.251 2.014 11.01 1.363 16.485.02 5.23 2.91 9.381 6.085 13.024 1.526 1.669-1.242 2.137-2.096 2.87-2.972-.061-3.195-3.786-6.187-4.254-4.477-1.465-9.361-1.445-12.638-5.311-1.79-.916-5.027-.957-5.515-3.277-1.913-3.724-3.867-7.326-6.451-11.539 0-6.166 1.262-12.536-1.486-17.95.326-2.889 1.425-6.125-.224-8.831-1.363-3.643 1.893-6.452 2.87-9.626.122-1.201.122-2.381.875-3.44 1.16-.895 2.991-1.424 4.314-.264"/><path fill="#767CB8" d="M-20.778 47.295c-.672-.08-.407-1.078-.936-1.22-.652-.754-2.097-1.018-1.791-2.097.488-.916-.102-2.096.936-2.788 3.317-.488 3.358-4.172 4.355-6.573 1.363-1.791 3.398-2.747 4.864-4.498 3.256-1.628 2.421-6.268 5.8-7.753 1.262-.997 1.689-2.564 3.012-3.582.895-1.16 2.462-1.994 2.89-3.561 4.07-3.542 8.71-7.001 13.838-9.057 4.6-2.523 6.838-7.02 8.548-11.559.732-2.116 2.462.061 3.52.488 1.364 2.646-1.811 4.6-.814 7.47.835 4.64 3.195 8.933 1.343 13.634.041 2.015 1.567 4.885-.244 6.431-2.36 3.44-4.62 6.9-7.082 11.152-5.413 2.951-11.6 4.885-15.06 9.85-2.706 1.079-6.064 1.67-7.652 4.396-2.564 2.951-6.573 1.404-9.83 2.056-1.098.468-2.136 1.037-3.438.875-1.344-.59-2.666-1.954-2.28-3.684"/><path fill="#C4006C" d="M17.217 21.816c-.651-.264-.122-1.16-.59-1.424-.448-.896-1.812-1.506-1.221-2.483.712-.773.468-2.056 1.648-2.483 3.317.366 4.294-3.195 5.861-5.25 1.77-1.384 3.989-1.812 5.84-3.135 3.582-.773 3.908-5.454 7.571-6.044 1.465-.651 2.28-2.035 3.826-2.686 1.18-.916 2.89-1.303 3.704-2.707 4.823-2.38 10.196-4.579 15.69-5.27 5.068-1.283 8.385-5.068 11.173-9.036 1.242-1.873 2.381.692 3.277 1.363.671 2.91-2.91 4.01-2.646 7.021-.346 4.701.835 9.443-2.137 13.534-.447 1.974.285 5.128-1.852 6.166a169.065 169.065 0 0 0-9.666 8.995c-5.983 1.465-12.475 1.79-17.075 5.739-2.87.366-6.268.081-8.506 2.32-3.216 2.218-6.716-.285-10.033-.489-1.201.184-2.34.469-3.562-.02-1.18-.895-2.096-2.564-1.282-4.131"/><path fill="#F7BC00" d="M101.612 15.548c.407-.55 1.16.163 1.526-.244.997-.204 1.893-1.364 2.707-.57.57.875 1.872.957 1.994 2.198-1.18 3.134 2.035 4.966 3.643 6.98.916 2.056.794 4.315 1.608 6.431-.143 3.643 4.314 5.129 4.009 8.833.264 1.587 1.404 2.706 1.669 4.355.59 1.363.569 3.113 1.729 4.253 1.12 5.27 1.934 11.01 1.242 16.484 0 5.25 2.849 9.382 6.003 13.045 1.506 1.69-1.261 2.137-2.116 2.85-2.992-.062-3.175-3.786-6.146-4.295-4.477-1.485-9.361-1.506-12.597-5.393-1.791-.936-5.027-.977-5.515-3.337-1.893-3.725-3.826-7.347-6.35-11.56.02-6.166 1.343-12.536-1.363-17.95.366-2.889 1.465-6.125-.163-8.831-1.343-3.663 1.954-6.431 2.95-9.606.123-1.2.123-2.381.896-3.44 1.16-.895 2.992-1.383 4.315-.223"/><path fill="#A7CB36" d="M40.783 13.493c-.63-.265-.142-1.14-.61-1.425-.468-.895-1.812-1.486-1.242-2.462.713-.774.448-2.056 1.649-2.483 3.317.366 4.273-3.216 5.84-5.271C48.17.448 50.39.02 52.22-1.323c3.562-.773 3.887-5.474 7.53-6.085 1.465-.65 2.26-2.055 3.806-2.706 1.14-.936 2.87-1.323 3.683-2.748 4.803-2.401 10.176-4.64 15.65-5.352 5.067-1.302 8.385-5.108 11.132-9.077 1.241-1.872 2.401.672 3.297 1.344.671 2.91-2.89 4.03-2.605 7.02-.326 4.702.875 9.444-2.055 13.554-.448 1.974.325 5.108-1.832 6.167C87.672 3.56 84.66 6.329 81.24 9.85c-5.984 1.506-12.455 1.852-17.034 5.84-2.89.387-6.288.123-8.486 2.382-3.195 2.218-6.736-.265-10.054-.448-1.2.183-2.34.488-3.561 0-1.16-.895-2.096-2.544-1.303-4.111"/><path fill="#C4006C" d="M110.749 47.52c.611-.326.977.63 1.486.447.977.224 2.3-.427 2.686.651.143 1.038 1.282 1.649.855 2.829-2.401 2.32-.285 5.352.305 7.876-.061 2.238-1.139 4.233-1.323 6.492-1.689 3.236 1.69 6.492-.162 9.707-.448 1.526.122 3.053-.387 4.64-.041 1.486-.814 3.073-.265 4.579-1.241 5.23-2.971 10.786-5.942 15.426-2.259 4.721-1.486 9.707-.204 14.368.631 2.157-2.055 1.404-3.134 1.668-2.666-1.343-1.241-4.782-3.724-6.532-3.378-3.256-7.794-5.373-9.036-10.277-1.22-1.608-4.13-3.033-3.54-5.373-.102-4.172-.285-8.283-.794-13.167 2.686-5.556 6.593-10.745 6.471-16.81 1.567-2.442 3.948-4.884 3.643-8.038.366-3.887 4.518-4.986 6.797-7.408.631-1.018 1.14-2.096 2.3-2.727 1.424-.305 3.317.02 3.989 1.648"/></g><path fill="#fff" d="m7.754 53.584 4.558.183-.142 2.218c-.041 2.463-2.26 2.87-4.437 2.626v-.876h.061c2.096 0 3.399-.224 3.5-1.628v-1.465l-3.56-.183v-.875h.02ZM3.256 53.4l4.498.183v.875l-3.623-.163v1.465c-.061 1.282.997 1.974 3.623 1.974v.876H7.57c-2.218-.102-4.436-.631-4.436-2.748l.122-2.462Z"/><path fill="#fff" d="m3.276 53.4 9.056.347-.122 2.218c-.04 2.523-2.38 2.87-4.62 2.645-2.217-.122-4.436-.65-4.436-2.767l.122-2.463v.02Zm.875.876v1.465c-.06 1.343.998 1.974 3.684 1.974 2.096 0 3.399-.224 3.5-1.628v-1.465l-7.204-.346h.02Zm-1.017 6.553 9.056-.753.366 4.11h-.875l-.346-3.113-2.991.163.346 2.991-.977.102-.244-2.971-3.338.346.366 3.113-.895.102-.468-4.09Zm10.664 9.483.407 1.567-8.833 1.995-.244-.876 7.327-1.689c.345-.081.691-.081 1.119-.183v-.122a4.96 4.96 0 0 1-1.242.122h-7.61l-.245-.997 6.838-3.44c.346-.121.59-.244.997-.406-.285 0-.651.06-1.099.183l-7.143 1.71-.224-.835 8.71-2.096.468 1.567-6.553 3.236c-.346.101-.63.223-1.22.407.467 0 .874-.123 1.342-.123h7.205v-.02Zm1.974 5.027c.122.285.163.59.163.814v.305c-.041 1.526-1.75 2.463-3.277 3.032-.407.184-.875.367-1.282.53v-1.06c.285-.122.53-.224.814-.346 1.933-.63 3.236-1.628 2.707-2.991-.407-1.1-1.812-.977-3.521-.407v-.998c1.69-.57 3.623-.814 4.396 1.12Zm-4.396 4.68c-1.872.652-3.561.753-4.314-1.058a1.698 1.698 0 0 1-.245-.936v-.122c.041-1.567 1.832-2.564 3.745-3.378.285-.122.53-.183.814-.306v.998c-.163.06-.285.122-.468.183-2.462.997-3.561 1.811-2.992 3.215.468 1.18 1.567 1.059 3.44.346v1.058h.02Z"/><path fill="#fff" d="M15.772 75.339c.875 2.157-1.221 3.378-3.094 4.131-2.34.997-4.62 1.71-5.596-.529-.936-2.218 1.16-3.46 3.5-4.437 1.873-.753 4.315-1.404 5.19.814m-.875.285c-.468-1.22-2.117-.976-3.969-.223-2.462.997-3.561 1.81-2.991 3.215.529 1.343 1.872.997 4.253 0 1.933-.63 3.236-1.628 2.707-2.992Zm1.75 7.877c.997-.53 1.587-1.181.997-2.178-.753-1.344-2.87-.123-3.867.407-1.119.59-3.561 1.872-2.645 3.337.529.997 1.404.651 2.422.346.101-.122.345-.224.57-.346l.406.773c-.223.123-.345.245-.529.245-.692.346-1.099.63-1.872.509-.834 0-1.364-.285-1.811-.998-1.18-2.157.977-3.5 2.849-4.62 1.811-.997 4.09-2.096 5.332-.121.753 1.363 0 2.767-1.282 3.46l-.59-.815h.02Zm2.747 1.22.814-.651 1.282 1.628c.998 1.343 1.344 2.462-.407 3.683-.529.407-1.16.57-1.689.407v-.752c.346.04.753-.061 1.221-.469 1.221-.895.57-1.75.224-2.279l-.753-.997-.692.53v-1.12.02Zm-5.739 5.556-.529-.814 6.268-4.742v1.12L17.4 87.264l.875 1.12c.244.183.59.59 1.12.65v.754c-.306-.061-.53-.244-.774-.407.59.875.366 1.282-.53 2.157-.467.448-.996.916-1.465 1.343-.101.122-.346.468-.223.651l-.183.123-.713-.876c.468-.407 1.242-1.22 1.69-1.648.752-.57 1.18-1.221.529-2.096l-.998-1.221-3.093 2.442h.02Z"/><path fill="#fff" d="m13.676 90.236-.53-.814 7.083-5.373 1.282 1.628c.997 1.343 1.343 2.462-.407 3.683-.814.631-1.811.631-2.463 0 .59.876.346 1.283-.529 2.158-.468.447-.997.915-1.465 1.343-.102.122-.346.468-.224.651l-.183.122-.712-.875c.468-.407 1.241-1.22 1.689-1.648.753-.57 1.18-1.221.529-2.096l-.977-1.222-3.093 2.443Zm3.724-2.992.875 1.12c.346.284 1.12 1.18 2.34.182 1.221-.895.59-1.75.245-2.279l-.774-.997-2.686 1.994v-.02Zm7.896 2.768.875.875-3.053 5.088v-1.812l2.056-3.154-2.056 1.282v-.997l2.158-1.282h.02Zm-2.157 5.963-1.75 2.87-.753-.632 1.465-2.34-1.872-1.75-2.219 1.384-.692-.733 5.841-3.46v.998l-2.055 1.22 1.424 1.588.631-.936v1.811l-.02-.02Z"/><path fill="#fff" d="m25.296 90.012.875.875-4.803 7.957-.753-.63 1.466-2.341-1.873-1.75-2.238 1.384-.692-.753 7.998-4.742h.02Zm-.122.997-4.09 2.503 1.424 1.588 2.686-4.091h-.02Zm2.646 1.526 3.968 3.094-.509.814-1.71-1.343-4.965 6.43-.63-.59 4.945-6.41-1.629-1.303.53-.692Zm0 11.152 4.843-7.468.773.407-4.843 7.652-.773-.591Zm9.178-1.973c.427-.998.529-1.873-.468-2.402-1.282-.712-2.503 1.404-3.093 2.503-.53.998-1.873 3.46-.285 4.213.875.529 1.526-.224 2.096-1.099.101-.122.163-.346.285-.407l.814.285c-.123.244-.123.366-.245.59-.468.529-.712 1.099-1.343 1.404-.651.346-1.343.468-2.116.102-2.219-1.221-.977-3.622 0-5.495.875-1.81 2.34-3.927 4.436-2.93 1.282.814 1.404 2.218.651 3.683l-.773-.468.04.021Zm6.899-.123.692.224c.712.122 1.465.468 1.71 1.12.304.631.304 1.343.121 1.974-.366.997-.956 1.892-1.831 1.994a1.328 1.328 0 0 1-.692 0v-.936c.753.061 1.282-.163 1.567-1.282.488-1.384-.285-1.872-1.404-2.096l-.163-.082v-.916Zm-3.928 8.182 2.625-8.589 1.282.407v.916l-.712-.224-.997 3.257.895.244c.285.102.59.163.815.163v.936c-.469 0-.998-.183-1.405-.346l-.529-.183-1.12 3.724-.874-.346.02.041Z"/><path fill="#fff" d="m39.969 109.773 2.625-8.589 1.995.631c.712.122 1.465.468 1.71 1.12.304.631.304 1.343.121 1.974-.366.997-.936 1.892-1.811 1.994-.651.122-1.506-.102-2.117-.346l-.529-.183-1.099 3.744-.875-.345h-.02Zm2.218-4.233.875.244c1.221.366 1.974.366 2.381-1.12.489-1.383-.285-1.872-1.404-2.096l-.875-.305-.997 3.256.02.021Zm7.795-2.422.285.061c1.628.224 2.625.875 2.279 2.991-.163.977-.997 1.628-1.873 1.628.998.367 1.222.692 1.12 1.873 0 .712-.122 1.343-.122 1.994 0 .224 0 .57.224.692l-.102.224-.997-.224c-.123-.59 0-1.689.122-2.34.122-.835-.061-1.588-.936-1.812v-.936c.529.122 1.404 0 1.567-1.343.223-1.526-.774-1.77-1.405-1.872h-.162v-.936Zm-2.402 8.649-.875-.102 1.465-8.832 1.812.285v.936l-1.059-.244-.529 3.215 1.404.244h.184v.936s-.123-.04-.184-.04l-1.526-.245-.692 3.867v-.02Z"/><path fill="#fff" d="m47.58 111.767-.875-.122 1.465-8.832 2.096.346c1.629.223 2.626.875 2.28 2.971-.183.997-.997 1.628-1.873 1.628.998.366 1.221.712 1.1 1.872 0 .712-.102 1.343-.102 1.995 0 .223 0 .569.224.691l-.102.245-.997-.245c-.123-.59 0-1.689.122-2.34.122-.875-.122-1.648-1.1-1.872l-1.526-.244-.692 3.866-.02.041Zm.814-4.742 1.425.224c.447.122 1.567.244 1.75-1.343.224-1.526-.773-1.771-1.404-1.872l-1.221-.245-.53 3.216-.02.02Zm8.486-3.439c2.443 0 2.687 2.442 2.585 4.579-.122 2.503-.468 4.782-2.686 4.843v-.875c1.465-.061 1.689-1.404 1.811-3.968 0-1.995-.346-3.623-1.811-3.623v-.936h.102v-.02Zm-.101 9.422h-.122c-2.402-.122-2.625-2.503-2.524-4.965 0-2.036.285-4.437 2.625-4.437v.936c-1.302 0-1.75 1.506-1.75 3.501 0 2.625.224 3.968 1.649 4.09h.122v.875Z"/><path fill="#fff" d="M56.88 103.586c2.443 0 2.687 2.462 2.585 4.558-.122 2.503-.468 4.844-2.808 4.844-2.402-.102-2.625-2.503-2.524-4.966 0-2.096.346-4.518 2.748-4.436Zm-.101.936c-1.303 0-1.75 1.526-1.75 3.5 0 2.625.224 3.969 1.648 4.091 1.567 0 1.811-1.343 1.934-3.969 0-1.994-.346-3.622-1.812-3.622m9.911 7.713-.773.122-.102-1.465c-.142.997-.773 1.689-1.648 1.75-2.442.244-2.992-2.279-3.216-4.376-.224-2.096-.102-4.68 2.239-4.965 1.526-.122 2.503.855 2.645 2.523l-.875.122c-.122-1.119-.651-1.872-1.648-1.77-1.75.244-1.567 2.401-1.343 4.009.122 1.323.346 3.724 1.994 3.623 1.628-.123 1.567-1.751 1.465-3.216l-1.872.244-.122-.895 2.768-.346.529 4.681-.04-.041Zm3.562-.773-.285.061v-1.221l.285 1.16Zm-.285-9.24v.875c.529-.061 1.282.061 1.648 1.283.305 1.424-.814 1.872-1.099 1.994l-.53.102v.895l.815-.244c.997-.244 1.587.407 1.811 1.343.061.529.53 1.628.875 2.096l.997-.224-.122-.244c-.224.122-.346-.346-.468-.468-.224-.631-.407-1.16-.651-1.872-.468-1.221-.753-1.404-1.75-1.282.875-.346 1.18-1.221.997-2.341-.407-1.648-1.282-2.096-2.503-1.933m0 9.3-.59.122-2.219-8.71 1.995-.529c.305-.122.529-.183.834-.183v.875a3.762 3.762 0 0 0-.468.183l-1.241.285.753 3.093.936-.183v.896l-.712.163.712 2.747v1.241Z"/><path fill="#fff" d="m70.272 111.462-.876.183-2.218-8.71 1.974-.53c1.649-.468 2.89-.223 3.338 1.751.183 1.119-.122 1.994-.997 2.34.997-.102 1.282.081 1.75 1.282.224.712.427 1.241.651 1.872.122.122.224.59.468.468l.122.245-.997.223c-.346-.468-.814-1.567-.895-2.096-.224-.936-.814-1.587-1.812-1.343l-1.506.407.998 3.908Zm-1.242-4.803 1.465-.285c.285-.122 1.405-.57 1.1-1.995-.469-1.587-1.588-1.343-2.097-1.099l-1.241.285.753 3.094h.02Zm7.55 2.951-3.439-8.303 3.867-1.588.346.814-2.992 1.181 1.12 2.808 2.747-1.119.346.875-2.809 1.119 1.242 3.093 2.97-1.221.367.753-3.765 1.588Zm5.617-9.993c-.366-.875-1.12-1.18-1.872-.773-1.242.59-.875 1.465-.59 2.096.366.468.834.651 1.343.651.488-.061.895-.061 1.343-.061 1.648-.223 2.218.061 2.768 1.181.875 1.445.468 2.849-.875 3.561-.652.407-1.649.631-2.626-.122-.346-.346-.712-.977-.936-1.465l.835-.407c.529 1.221 1.16 1.872 2.279 1.221.936-.468 1.099-1.221.712-2.117-.712-1.221-1.12-.997-1.994-.875-.468 0-1.221.082-1.812.082-.875 0-1.282-.529-1.75-1.303-.773-1.343-.427-2.564.753-3.215 1.343-.753 2.585-.468 3.216 1.099l-.753.427-.04.02Zm5.088-3.398c-.53-.773-1.343-1.12-1.974-.59-1.12.834-.652 1.587-.244 2.218.346.468.753.651 1.343.468.407-.102.875-.224 1.343-.346 1.628-.346 2.177 0 2.87.875.996 1.465.874 2.747-.49 3.745-.63.468-1.505.814-2.624.122-.367-.183-.774-.875-1.12-1.16l.753-.59c.753 1.119 1.466 1.648 2.565.875.65-.529.895-1.282.305-2.219-.875-1.119-1.221-.773-2.117-.529-.407 0-1.18.224-1.75.346-.753.061-1.404-.346-1.872-1.12-.875-1.22-.753-2.563.346-3.316 1.18-.875 2.401-.651 3.276.63l-.65.59h.04Zm6.553 3.195-6.024-6.777.692-.529 5.983 6.736-.651.57Zm-1.221-11.397.753-.752 4.843 7.835-.753.875-8.059-4.559.631-.63 7.306 4.192-4.721-6.96Zm8.364 3.969-7.265-5.312 2.401-3.276.773.529-1.872 2.523 2.32 1.812 1.75-2.463.774.59-1.75 2.402 2.686 1.994 1.872-2.645.753.529-2.442 3.317Zm5.189-7.936-4.904-2.463v-.998l1.18.59.346-.834c.529-1.058.753-1.872-.712-2.503-.285-.183-.59-.244-.814-.305V76.6c.407 0 .814.122 1.18.366.977.407 1.628 1.099 1.628 2.117 0 .63-.305 1.404-.651 1.994l-.224.529 3.46 1.71-.468.753-.021-.02Zm-4.904-2.463-3.175-1.527.997-1.872c.224-.59.692-1.221 1.343-1.465.224-.061.53-.122.814-.122v.936c-.753 0-1.16.529-1.465 1.282l-.468.753 1.933.997v.997l.021.02Z"/><path fill="#fff" d="m106.17 84.049-8.058-3.968.997-1.873c.224-.59.692-1.22 1.343-1.465.631-.224 1.465-.122 1.994.244.977.407 1.628 1.1 1.628 2.096 0 .652-.305 1.405-.651 1.995l-.224.529 3.46 1.71-.468.752-.021-.02Zm-3.724-2.87.346-.834c.529-1.058.753-1.872-.712-2.503-1.282-.651-1.872 0-2.3.997l-.468.753 3.114 1.588h.02Zm1.974-8.649 6.309.469-.346.997-2.625-.224-.814 2.462 2.218 1.405-.305.875-4.437-2.87v-1.038l1.75 1.038.713-1.994-2.463-.285v-.834Zm-3.337.876.468-1.12 2.869.245v.814l-2.462-.224 2.462 1.465v1.038l-3.337-2.218Z"/><path fill="#fff" d="m101.083 73.406.468-1.12 9.198.713-.366.997-2.625-.224-.835 2.442 2.239 1.404-.305.875-7.774-5.087Zm.875-.306 4.212 2.504.713-1.975-4.905-.529h-.02Zm9.422-2.849-.122.875-6.085-1.221v-.936l1.465.305.306-1.343c0-.468.224-1.628-1.303-1.893-.183-.04-.285-.04-.468-.04v-.937c.244 0 .468.062.712.102.998.184 1.629.875 1.629 1.873.366-.998.773-1.242 1.872-1.1.631.102 1.343.245 1.994.245.224 0 .631 0 .631-.244l.244.101-.244.998c-.529.122-1.628 0-2.259-.123-.875-.223-1.689 0-1.872.998l-.366 1.526 3.866.814Zm-6.207-.346-2.727-.59.468-2.035c.285-1.466.814-2.34 2.259-2.219v.937c-1.099-.061-1.343.875-1.404 1.343l-.366 1.343 1.75.285v.936h.02Z"/><path fill="#fff" d="m111.38 70.251-.122.875-8.832-1.811.468-2.035c.285-1.69.977-2.585 2.971-2.117.997.184 1.628.875 1.628 1.873.346-.998.773-1.221 1.872-1.12.631.102 1.344.245 1.995.245.224 0 .631 0 .631-.245l.244.102-.244.997c-.529.122-1.628 0-2.28-.122-.875-.224-1.689 0-1.872.997l-.346 1.527 3.867.814.02.02Zm-4.742-.997.285-1.343c0-.468.245-1.649-1.282-1.893-1.567-.346-1.75.773-1.872 1.302l-.366 1.344 3.215.59h.02Zm-3.215-5.454.468-5.067.895.122-.244 1.974 8.12.65-.04.876-8.08-.53-.244 2.097-.875-.122Zm4.742-8.303-4.498-1.628-.122-.998 5.617 2.24 3.5-.245v.895l-3.378.204-5.393 2.645-.122-.997 4.396-2.116ZM10.806 41.82l2.809 1.405c.773.367 1.302.224 1.587-.63l.936-1.995-.692-1.18-1.302 2.625-2.219-1.12 1.405-2.91 3.276.346c.285.061.509-.122.835-.407l.936-1.933-.712-1.221-1.1 2.34-2.686-.224.814-1.689-.692-1.282-1.343 2.748-1.526-.061 1.75-3.562-2.035-.997v1.343l.346.224-.346.753v3.337l1.302.184-1.302 2.523v1.404l-.04-.02ZM5.72 39.38l5.087 2.442v-1.404l-1.282-.59 1.058-2.097h.224v-3.337l-2.401 4.864-.997-.489 2.747-5.678.651.306v-1.343l-.122-.061c-.63-.285-1.22-.285-1.628.59L5.72 39.358v.02Zm18.253-21.817-.651-.936 3.032-2.28-1.16-.59 1.1-.814 1.22.57 3.175-2.34.061 1.363-2.523 1.872 1.404 1.913 3.154-2.32-.06 1.506-2.382 1.75 1.628 2.219 3.338-2.442-.061 1.506-7.021 5.21-.713-.937 3.277-2.462-1.628-2.218-3.033 2.3-.712-.957 3.053-2.26-1.404-1.933-3.094 2.28ZM53.787 2.462l.936 1.873h1.221l-.936-1.873h-1.22Zm-.366 2.178 1.12 1.852h1.24L54.663 4.64h-1.241Zm.183 2.971v1.12h1.567v.936c-.244 1.119-.753 2.157-1.465 3.154h1.363l.59-.936c.285.407.815.692 1.445.936h6.024l.631-1.18h-6.675c-.305-.224-.53-.53-.712-.875V8.73c.06-.712-.163-.997-.59-1.119h-2.219.041Z"/><path fill="#fff" d="M59.282 10.765h3.399l.63-1.119h-1.994V8.73h1.221l.814-1.119h-2.055v-.753h1.465l.814-1.099h-2.28v-.875h1.568l.712-1.12h-2.28v-1.28h-1.18v1.282h-.875v1.12h.875v.874h-.875v1.1h.875v.752h-.875v1.12h.875v.915h-.875v1.12h.041Zm0-7.489v-.814h.59l-.59.814Zm-.814-.814-1.343 1.282v7.021h2.157V9.646h-.814V8.73h.814V7.611h-.814v-.753h.814V5.76h-.814v-.875h.814v-1.12h-.346l.346-.467v-.814h-.814v-.02ZM87.061 11.6l-1.872 2.625-1.18-.875-.713.997 3.154 2.219-2.096 3.032c-1.22-.59-2.279-1.303-3.337-2.056l-.061 1.343c.814.59 1.689 1.242 2.564 1.69 1.689.936 3.928.692 6.329.223l-.244-1.119c-1.466.305-2.809.407-4.09.244l1.933-2.706 2.97 2.116 1.405-.468-3.683-2.625.65-.916 2.382 1.69 1.241-.408-3.052-2.157.773-1.058-.936-.713-2.056 2.87-.977-.651 1.852-2.626-.997-.692.041.02Z"/><path fill="#fff" d="m81.912 16.504.183 1.221 3.379-.508-.163-1.14-3.399.427Zm23.282 25.378 1.16-.57c.305-.244.407-.529.305-.834l-1.465-3.053v1.465l.59 1.16-.244.123-.346-.754v2.463Zm-.407.183.407-.183V39.44l-.407-.753v1.404l.244.407-.244.061v1.527-.02Zm.407-4.62v1.466l-.346-.774h-.061v-1.526l.407.814v.02Zm-.753 5.027.04-.06-.04-.184v.244Zm0-1.12.346.713V40.6l-.346-.773v1.526Zm.346-4.74v1.525l-.184.123.184.407v1.404l-.346-.814v-3.46l.346.814Zm-.998 5.86.123.224.529-.224v-.224l-.652-1.343v1.587-.02Zm0-2.462v-3.5l.306.712.224-.123-.53-1.119v-1.465l.652 1.282v3.46l-.346-.713-.245.102.591 1.16v1.527l-.652-1.344v.02Zm-.346-6.248-.061.061v1.506l.061-.061.346.712v-1.465l-.346-.753Zm-.061 9.178.184-.06-.184-.408v.468Zm0-1.282v-1.567l.407.814v1.587l-.407-.813v-.02Zm0-2.503v-1.628l.123-.061-.123-.305v-1.506l.407.875v3.5l-.407-.875Zm0-5.312-.407.163v2.402l.407.753v-1.506l-.183-.245.183-.06v-1.507Zm-.407 9.3.407-.182v-.468l-.407-.815v1.466Zm0-2.279.407.815V40.11l-.407-.814v1.568Zm0-1.75v-2.218l.367.651h.061v1.628l-.122-.223-.306.162Zm0-5.087-1.689.814 1.445 3.052-.325.183-1.649-3.337-.59.285 1.587 3.337-.305.183-1.648-3.317-.57.224 3.724 7.733V41.72l-.977-2.096.285-.163.692 1.445v-1.567l-.041-.183h.041v-2.218l-.509-1.058.183-.123.326.692v-2.401l.02-.02Zm3.134 4.639.407.876 1.344-.652-1.751-3.683v1.404l.774 1.587-.245.123-.529-1.1v1.446Zm-.529-4.436-1.343.63 1.872 3.806v-1.444l-.814-1.649.224-.102.59 1.16v-1.404l-.529-.997Z"/><path fill="#fff" d="m103.423 33.11 2.157-1.037.936 1.994.59-.834.469.997-.53.875.224.53.774-.367.508 1.058-.753.346.285.59 1.059.245.468.977-.998-.123.652 1.283c0 .346-.061.63-.285.875l-1.588.753-.63-1.221 1.628-.754-2.809-5.8-1.628.774-.529-1.18v.02Zm-4.375 3.053-1.71-.345.59 1.2 1.71.285-.59-1.14Zm.936 1.914-1.588-.163.59 1.22 1.588.062-.59-1.12Zm.692 1.403-.876 1.405.591 1.119.814-1.404-.529-1.12Zm.875 1.771-.814 1.506.59 1.221.773-1.506-.549-1.22Z"/></g><defs><clipPath id="a"><path fill="#fff" d="M0 0h116v116H0z"/></clipPath></defs></svg>